# xmcd
#
# Track frame offsets:
#	150
#	26154
#	52981
#	80452
#	108195
#	133125
#	154563
#	178720
#	202579
#	226521
#
# Disc length: 3386 seconds
#
# Revision: 1
# Processed by: cddbd v1.5.2PL0 Copyright (c) Steve Scherf et al.
# Submitted via: audiograbber 1.83.01
#
DISCID=6d0d380a
DTITLE=Acoustic Syndicate - Rooftop Garden
DYEAR=1900
DGENRE=Country
TTITLE0=Heroes
TTITLE1=Coming In From The Cold
TTITLE2=King For A Day
TTITLE3=Forward
TTITLE4=Hourglass
TTITLE5=Memphis Girls
TTITLE6=Bicycle Song
TTITLE7=Rooftop Garden
TTITLE8=Song For Me
TTITLE9=Beside Me
EXTD=
EXTT0=
EXTT1=
EXTT2=
EXTT3=
EXTT4=
EXTT5=
EXTT6=
EXTT7=
EXTT8=
EXTT9=
PLAYORDER=
